/* XPM */
static char *d1a5c0be480742dbbee39f7866a899daCqna2YAAM0c7csnr[] = {
/* columns rows colors chars-per-pixel */
"64 64 11 1 ",
"  c black",
". c #001835",
"X c #001938",
"o c #8C6F56",
"O c #907258",
"+ c #A07F61",
"@ c #B79170",
"# c #BC9573",
"$ c #003B82",
"% c #0F7CFF",
"& c #80B9FF",
/* pixels */
"++++++++++++o++++++++++++++o++++++++++++++o++++++++++++++o++++++",
"+o++++o++#+o+o++o++++o++#+o+o++o++++o++#+o+o++o++++o++#+o+o++o++",
"o+o++o++++++o++O+o++o++++++o++o+o++o++++++o++o+o++o++++++o++o+o+",
"+o++++++++++++++o++++++++++++++o++++++++++++++o++++++++++++++o++",
"+++#++++o++#++++++#++++o++#++++++#++++o++#++++++#++++o++#++++++#",
"+#+++++o+o++++o+#+++++o+o++++o+#+++++o+o++++o+#+++++o+o++++o+#++",
"++++++++o++++o+++++++++o++++o+++++++++o++++o+++++++++o++++o+++++",
"++o++#+++++++++++o++#+++++++++++o++#+++++++++++o++#+++++++++++o+",
"+o+++++++++o++++o+++++++++o++++o+++++++++o++++o+++++++++o++++o++",
"++++++++++o++#+++++++++++o++#++  +++++++o++#+++++++++++o++#+++++",
"++++++o++++++++++++++o++++++++ .& ++o++++++++++++++o++++++++++++",
"#++++o++++++o++@++++o++++++o++ .& +o++++++o++#++++o++++++o++#+++",
"+++o+++#+++o+o++++o+++#+++o+o X.&& ++#+++o+o++++o+++#+++o+o++++o",
"++o+o++++o++o++++o+o++++o++o+ X.&& ++++o++o++++o+o++++o++o++++o+",
"+#+o++++o+++++++#+o++++o++++ $X.&&& ++o+++++++#+o++++o+++++++#+o",
"++++++++++#+++#++++++++++#++ $X.&&& ++++#+++#++++++++++#+++#++++",
"++++++++++++o++++++++++++++ $$X.&&&& +++++o++++++++++++++o++++++",
"+o++++o++#+o+o++o++++o++#+o $$X.&$&& ++#+o+o++o++++o++#+o+o++o++",
"o+o++o++++++o++O+o++o+++++ $$$X.&$$&& ++++o++o+o++o++++++o++o+o+",
"+o++++++++++++++o+++++++++ $$$X.&$$&& ++++++++o++++++++++++++o++",
"+++#++++o++#++++++#++++o+ $$$$X.&$$$&& ++#++++++#++++o++#++++++@",
"+#+++++o+o++++o+#+++++o+o $%$$X.&$$$&& o++++o+#+++++o+o++++o+#++",
"++++++++o++++o+++++++++o $$%$$X.&$$$&&& +++o+++++++++o++++o+++++",
"++o++#+++++++++++o++#+++ $%%$$X.&$$$$&& +++++++o++#+++++++++++o+",
"+o+++++++++o++++o++++++ $$%%%$X.&$$$$&&& o++++o+++++++++o++++o++",
"++++++++++o++#+++++++++ $$%%%$X.&$$$&&&& ++#+++++++++++o++#+++++",
"++++++o++++++++++++++o $%$%%%$X.&$$$&&&&& +++++++++o++++++++++++",
"#++++o++++++o++@++++o+ $%%%%%$X.&$$$&&&&& o++#++++o++++++o++#+++",
"+++o+++#+++o+o++++o++ $$%%%%%$X.&$$&&&&&&& o++++o+++#+++o+o++++O",
"++o+o++++o++o++++o+o+ $$$%%%%$XX&$$&&&&&&& ++++o+o++++o++o++++o+",
"+#+o++++o+++++++#+o+ $$$$%%%%$XX&$$&&&&&&&& ++#+o++++o+++++++#+O",
"++++++++++#+++#+++++ $$$$$$$XXX.&&$$$$$&&&& #++++++++++#+++#++++",
"++++++++++++o+++++++ %%%%$$$$$$$&$XXXX$X$$$X+++++++++++++o++++++",
"+o++++o++#+o+o++o+++ %%%$$$$$$$$&$XXXXX$X$$ ++o++++o++#+o+o++o++",
"o+o++o++++++o++O+o++ %%$$%$$$$$$&$XXXXX$$X$ +o+o++o++++++o++o+o+",
"+o++++++++++++++o++++ %$%$$$$$$.&$XXXXXX$X +++o++++++++++++++o++",
"+++#++++o++#++++++#++ $$%$$$$$$.&$XXXXXX$$ +++++#++++o++#++++++#",
"+#+++++o+o++++o+#+++++ $$$$$$$%.&$X$$XXXX ++o+#+++++o+o++++o+#++",
"++++++++o++++o++++++++ $$$$$$%%.&$X$$XXXX +o+++++++++o++++o+++++",
"++o++#+++++++++++o++#++ $$$$$%%.&$X$$XXX ++++++o++#+++++++++++o+",
"+o+++++++++o++++o++++++ $$$$%%%.&$X$$$XX o++++o+++++++++o++++o++",
"++++++++++o++#+++++++++ $$$$%%%.&$X$$$XX ++#+++++++++++o++#+++++",
"++++++o++++++++++++++o++ $$%%%%.&$X$$$X +++++++++++o++++++++++++",
"#++++o++++++o++@++++o+++ $$%%%%.&$X$$$X ++o++#++++o++++++o++#+++",
"+++o+++#+++o+o++++o+++#++ $%%%%.&$X$$$ ++o+o++++o+++#+++o+o++++o",
"++o+o++++o++o++++o+o++++o %%%%%.&$X$$$ o++o++++o+o++++o++o++++o+",
"+#+o++++o+++++++#+o++++o++ %%%%.&$X$$ o+++++++#+o++++o+++++++#+o",
"++++++++++#+++#++++++++++# %%%%.&$X$$ ++#+++#++++++++++#+++#++++",
"++++++++++++o++++++++++++++ %%%.&$$$ +++++o++++++++++++++o++++++",
"+o++++o++#+o+o++o++++o++#+o %%%.&$$$ ++#+o+o++o++++o++#+o+o++o++",
"o+o++o++++++o++O+o++o++++++o %%.&$$ ++++++o++o+o++o++++++o++o+o+",
"+o++++++++++++++o+++++++++++ %%.&$$ ++++++++++o++++++++++++++o++",
"+++#++++o++#++++++#++++o++#++ %.&$ +++o++#++++++#++++o++#++++++#",
"+#+++++o+o++++o+#+++++o+o++++ %.&$ ++o+o++++o+#+++++o+o++++o+#++",
"++++++++o++++o+++++++++o++++o+ $& ++++o++++o+++++++++o++++o+++++",
"++o++#+++++++++++o++#++++++++++  ++#+++++++++++o++#+++++++++++o+",
"+o+++++++++o++++o+++++++++o++++o+++++++++o++++o+++++++++o++++o++",
"++++++++++o++#+++++++++++o++#+++++++++++o++#+++++++++++o++#+++++",
"++++++o++++++++++++++o++++++++++++++o++++++++++++++o++++++++++++",
"#++++o++++++o++@++++o++++++o++#++++o++++++o++#++++o++++++o++#+++",
"+++o+++#+++o+o++++o+++#+++o+o++++o+++#+++o+o++++o+++#+++o+o++++o",
"++o+o++++o++o++++o+o++++o++o++++o+o++++o++o++++o+o++++o++o++++o+",
"+#+o++++o+++++++#+o++++o+++++++#+o++++o+++++++#+o++++o+++++++#+o",
"++++++++++#+++#++++++++++#+++#++++++++++#+++#++++++++++#+++#++++"
};
