/* XPM */
static char *_25ea100e5364fab9f791db0694ec5e1UuzdY0p99LfZlqbj[] = {
/* columns rows colors chars-per-pixel */
"64 64 32 1 ",
"  c black",
". c gray2",
"X c #0B0B0B",
"o c #0C0C0C",
"O c #101010",
"+ c #161616",
"@ c #181818",
"# c gray11",
"$ c #202020",
"% c gray14",
"& c #282828",
"* c #2C2C2C",
"= c gray19",
"- c #343434",
"; c gray22",
": c #3C3C3C",
"> c gray25",
", c #444444",
"< c #484848",
"1 c #4C4C4C",
"2 c #505050",
"3 c gray33",
"4 c #585858",
"5 c gray36",
"6 c #606060",
"7 c #797979",
"8 c #8C6F56",
"9 c #907258",
"0 c #A07F61",
"q c #B79170",
"w c #BC9573",
"e c #8E8E8E",
/* pixels */
"0000000000008000000000000008000000000000008000000000000008000000",
"080000800w08080080000800w08080080000800w08080080000800w080800800",
"8080080000008009080080000008008080080000008008080080000008008080",
"0800000000000000800000000000000800000000000000800000000000000800",
"000w0000800w000000w0000800w000000w0000800w000000w0000800w000000w",
"0w00000808000080w00000808000080w00000808000080w00000808000080w00",
"0000000080000800000000080000800000000080000800000000080000800000",
"++++++++++++++++++++++++++++++++++++++++++++++++++++++++++++++++",
"+eeeeeeeeeeeeeeeeeeeeeeeeeeeeeeeeeeeeeeeeeeeeeeeeeeeeeeeeeeeeee+",
"+eeeeeeeeeeeeeeeeeeeeeeeeeeeeeeeeeeeeeeeeeeeeeeeeeeeeeeeeeeeeee+",
"+eeeeeeeeeeeeeeeeeeeeeeeeeeeeeeeeeeeeeeeeeeeeeeeeeeeeeeeeeeeeee+",
"+eeeeeeeeeeeeeeeeeeeeeeeeeeeeeeeeeeeeeeeeeeeeeeeeeeeeeeeeeeeeee+",
"+eeeeeeeeeeeeeeeeeeeeeeeeeeeeeeeeeeeeeeeeeeeeeeeeeeeeeeeeeeeeee+",
"+eeeeeeeee+++++++++++++++++++++++++++++++++++++++++++++++++eeee+",
"+eeeeeeeee+66666666666666666666666666666666666666666666666+eeee+",
"+eeeeeeeee+55555555555555555555555555555555555555555555555+eeee+",
"+eeeeeeeee+44444444444444444444444444444444444444444444444+eeee+",
"+eeeeeeeee+33333333333333333333333333333333333333333333333+eeee+",
"+eeeeeeeee+22222222222222222222222222222222222222222222222+eeee+",
"+eeeeeeeee+11111111111111111111111111111111111111111111111+eeee+",
"+eeeeeeeee+<<<<<<<<<<<<<<<<<<<<<<<<<<<<<<<<<<<<<<<<<<<<<<<+eeee+",
"+eeeeeeeee++++++++++++++,,,,,,,,,,,,,,,,,,,,,,,,,,,,,,,,,,+eeee+",
"+eeeeeeeee+777777777777+>>>>>>>>>>>>>>>>>>>>>>>>>>>>>>>>>>+eeee+",
"+eeeeeeeee+777777777777+::::::::::::::::::::::::::::::::::+eeee+",
"+eeeeeeeee+777777777777+;;;;;;;;;;;;;;;;;;;;;;;;;;;;;;;;;;+eeee+",
"+eeeeeeeee+777777777777+----------------------------------+eeee+",
"+eeeeeeeee+777777777777+==================================+eeee+",
"+eeeeeeeee+777777777777+**********************************+eeee+",
"+eeeeeeeee+777777777777+&&&&&&&&&&&&&&&&&&&&&&&&&&&&&&&&&&+eeee+",
"+eeeeeeeee+777777777777++++++++++++%%%%%%%%%%%%%%%%%%%%%%%+eeee+",
"+eeeeeeeee+777777777777+6666666666+$$$$$$$$$$$$$$$$$$$$$$$+eeee+",
"+eeeeeeeee+777777777777+6666666666+#######################+eeee+",
"+eeeeeeeee+777777777777+6666666666+@@@@@@@@@@@@@@@@@@@@@@@+eeee+",
"+eeeeeeeee+777777777777+6666666666+++++++++++++++++++++++++eeee+",
"+eeeeeeeee+777777777777+6666666666+OOOOOOOOOOOOOOOOOOOOOOO+eeee+",
"+eeeeeeeee+777777777777+6666666666+ooooooooooooooooooooooo+eeee+",
"+eeeeeeeee+777777777777+6666666666+++++++++++++           +eeee+",
"+eeeeeeeee+777777777777+6666666666+11111111111+XXXXXXXXXXX+eeee+",
"+eeeeeeeee+777777777777+6666666666+11111111111+           +eeee+",
"+eeeeeeeee+777777777777+6666666666+11111111111+ XXXXXXXXXX+eeee+",
"+eeeeeeeee+777777777777+6666666666+11111111111+XXXXXXXXXXX+eeee+",
"+eeeeeeeee+777777777777+6666666666+11111111111+           +eeee+",
"+eeeeeeeee+777777777777+6666666666+11111111111+++++++++  .+eeee+",
"+eeeeeeeee+777777777777+6666666666+11111111111+;;;;;;;+...+eeee+",
"+eeeeeeeee+777777777777+6666666666+11111111111+;;;;;;;+.. +eeee+",
"+eeeeeeeee+777777777777+6666666666+11111111111+;;;;;;;+ . +eeee+",
"+eeeeeeeee+777777777777+6666666666+11111111111+;;;;;;;+ . +eeee+",
"+eeeeeeeee+777777777777+6666666666+11111111111+;;;;;;;+ ..+eeee+",
"+eeeeeeeee+++++++++++++++++++++++++++++++++++++++++++++++++eeee+",
"+eeeeeeeeeeeeeeeeeeeeeeeeeeeeeeeeeeeeeeeeeeeeeeeeeeeeeeeeeeeeee+",
"+eeeeeeeeeeeeeeeeeeeeeeeeeeeeeeeeeeeeeeeeeeeeeeeeeeeeeeeeeeeeee+",
"+eeeeeeeeeeeeeeeeeeeeeeeeeeeeeeeeeeeeeeeeeeeeeeeeeeeeeeeeeeeeee+",
"+eeeeeeeeeeeeeeeeeeeeeeeeeeeeeeeeeeeeeeeeeeeeeeeeeeeeeeeeeeeeee+",
"+eeeeeeeeeeeeeeeeeeeeeeeeeeeeeeeeeeeeeeeeeeeeeeeeeeeeeeeeeeeeee+",
"+eeeeeeeeeeeeeeeeeeeeeeeeeeeeeeeeeeeeeeeeeeeeeeeeeeeeeeeeeeeeee+",
"+eeeeeeeeeeeeeeeeeeeeeeeeeeeeeeeeeeeeeeeeeeeeeeeeeeeeeeeeeeeeee+",
"++++++++++++++++++++++++++++++++++++++++++++++++++++++++++++++++",
"0000000000800w00000000000800w00000000000800w00000000000800w00000",
"0000008000000000000008000000000000008000000000000008000000000000",
"w00008000000800q00008000000800w00008000000800w00008000000800w000",
"0008000w00080800008000w00080800008000w00080800008000w00080800008",
"0080800008008000080800008008000080800008008000080800008008000080",
"0w08000080000000w08000080000000w08000080000000w08000080000000w08",
"0000000000w000w0000000000w000w0000000000w000w0000000000w000w0000"
};
