/* XPM */
static char *aa55d7781eb54326922069ea55f74280zJ8qRmrvHNJUjFN6[] = {
/* columns rows colors chars-per-pixel */
"64 64 5 1 ",
"  c #8C6F56",
". c #907258",
"X c #A07F61",
"o c #B79170",
"O c #BC9573",
/* pixels */
"XXXXXXXXXXXX XXXXXXXXXXXXXX XXXXXXXXXXXXXX XXXXXXXXXXXXXX XXXXXX",
"X XXXX XXOX X XX XXXX XXOX X XX XXXX XXOX X XX XXXX XXOX X XX XX",
" X XX XXXXXX XX.X XX XXXXXX XX X XX XXXXXX XX X XX XXXXXX XX X X",
"X XXXXXXXXXXXXXX XXXXXXXXXXXXXX XXXXXXXXXXXXXX XXXXXXXXXXXXXX XX",
"XXXOXXXX XXOXXXXXXOXXXX XXOXXXXXXOXXXX XXOXXXXXXOXXXX XXOXXXXXXO",
"XOXXXXX X XXXX XOXXXXX X XXXX XOXXXXX X XXXX XOXXXXX X XXXX XOXX",
"XXXXXXXX XXXX XXXXXXXXX XXXX XXXXXXXXX XXXX XXXXXXXXX XXXX XXXXX",
"XX XXOXXXXXXXXXXX XXOXXXXXXXXXXX XXOXXXXXXXXXXX XXOXXXXXXXXXXX X",
"X XXXXXXXXX XXXX XXXXXXXXX XXXX XXXXXXXXX XXXX XXXXXXXXX XXXX XX",
"XXXXXXXXXX XXOXXXXXXXXXXX XXOXXXXXXXXXXX XXOXXXXXXXXXXX XXOXXXXX",
"XXXXXX XXXXXXXXXXXXXX XXXXXXXXXXXXXX XXXXXXXXXXXXXX XXXXXXXXXXXX",
"OXXXX XXXXXX XXoXXXX XXXXXX XXOXXXX XXXXXX XXOXXXX XXXXXX XXOXXX",
"XXX XXXOXXX X XXXX XXXOXXX X XXXX XXXOXXX X XXXX XXXOXXX X XXXX ",
"XX X XXXX XX XXXX X XXXX XX XXXX X XXXX XX XXXX X XXXX XX XXXX X",
"XOX XXXX XXXXXXXOX XXXX XXXXXXXOX XXXX XXXXXXXOX XXXX XXXXXXXOX ",
"XXXXXXXXXXOXXXOXXXXXXXXXXOXXXOXXXXXXXXXXOXXXOXXXXXXXXXXOXXXOXXXX",
"XXXXXXXXXXXX XXXXXXXXXXXXXX XXXXXXXXXXXXXX XXXXXXXXXXXXXX XXXXXX",
"X XXXX XXOX X XX XXXX XXOX X XX XXXX XXOX X XX XXXX XXOX X XX XX",
" X XX XXXXXX XX.X XX XXXXXX XX X XX XXXXXX XX X XX XXXXXX XX X X",
"X XXXXXXXXXXXXXX XXXXXXXXXXXXXX XXXXXXXXXXXXXX XXXXXXXXXXXXXX XX",
"XXXOXXXX XXOXXXXXXOXXXX XXOXXXXXXOXXXX XXOXXXXXXOXXXX XXOXXXXXXo",
"XOXXXXX X XXXX XOXXXXX X XXXX XOXXXXX X XXXX XOXXXXX X XXXX XOXX",
"XXXXXXXX XXXX XXXXXXXXX XXXX XXXXXXXXX XXXX XXXXXXXXX XXXX XXXXX",
"XX XXOXXXXXXXXXXX XXOXXXXXXXXXXX XXOXXXXXXXXXXX XXOXXXXXXXXXXX X",
"X XXXXXXXXX XXXX XXXXXXXXX XXXX XXXXXXXXX XXXX XXXXXXXXX XXXX XX",
"XXXXXXXXXX XXOXXXXXXXXXXX XXOXXXXXXXXXXX XXOXXXXXXXXXXX XXOXXXXX",
"XXXXXX XXXXXXXXXXXXXX XXXXXXXXXXXXXX XXXXXXXXXXXXXX XXXXXXXXXXXX",
"OXXXX XXXXXX XXoXXXX XXXXXX XXOXXXX XXXXXX XXOXXXX XXXXXX XXOXXX",
"XXX XXXOXXX X XXXX XXXOXXX X XXXX XXXOXXX X XXXX XXXOXXX X XXXX.",
"XX X XXXX XX XXXX X XXXX XX XXXX X XXXX XX XXXX X XXXX XX XXXX X",
"XOX XXXX XXXXXXXOX XXXX XXXXXXXOX XXXX XXXXXXXOX XXXX XXXXXXXOX.",
"XXXXXXXXXXOXXXOXXXXXXXXXXOXXXOXXXXXXXXXXOXXXOXXXXXXXXXXOXXXOXXXX",
"XXXXXXXXXXXX XXXXXXXXXXXXXX XXXXXXXXXXXXXX XXXXXXXXXXXXXX XXXXXX",
"X XXXX XXOX X XX XXXX XXOX X XX XXXX XXOX X XX XXXX XXOX X XX XX",
" X XX XXXXXX XX.X XX XXXXXX XX X XX XXXXXX XX X XX XXXXXX XX X X",
"X XXXXXXXXXXXXXX XXXXXXXXXXXXXX XXXXXXXXXXXXXX XXXXXXXXXXXXXX XX",
"XXXOXXXX XXOXXXXXXOXXXX XXOXXXXXXOXXXX XXOXXXXXXOXXXX XXOXXXXXXO",
"XOXXXXX X XXXX XOXXXXX X XXXX XOXXXXX X XXXX XOXXXXX X XXXX XOXX",
"XXXXXXXX XXXX XXXXXXXXX XXXX XXXXXXXXX XXXX XXXXXXXXX XXXX XXXXX",
"XX XXOXXXXXXXXXXX XXOXXXXXXXXXXX XXOXXXXXXXXXXX XXOXXXXXXXXXXX X",
"X XXXXXXXXX XXXX XXXXXXXXX XXXX XXXXXXXXX XXXX XXXXXXXXX XXXX XX",
"XXXXXXXXXX XXOXXXXXXXXXXX XXOXXXXXXXXXXX XXOXXXXXXXXXXX XXOXXXXX",
"XXXXXX XXXXXXXXXXXXXX XXXXXXXXXXXXXX XXXXXXXXXXXXXX XXXXXXXXXXXX",
"OXXXX XXXXXX XXoXXXX XXXXXX XXOXXXX XXXXXX XXOXXXX XXXXXX XXOXXX",
"XXX XXXOXXX X XXXX XXXOXXX X XXXX XXXOXXX X XXXX XXXOXXX X XXXX ",
"XX X XXXX XX XXXX X XXXX XX XXXX X XXXX XX XXXX X XXXX XX XXXX X",
"XOX XXXX XXXXXXXOX XXXX XXXXXXXOX XXXX XXXXXXXOX XXXX XXXXXXXOX ",
"XXXXXXXXXXOXXXOXXXXXXXXXXOXXXOXXXXXXXXXXOXXXOXXXXXXXXXXOXXXOXXXX",
"XXXXXXXXXXXX XXXXXXXXXXXXXX XXXXXXXXXXXXXX XXXXXXXXXXXXXX XXXXXX",
"X XXXX XXOX X XX XXXX XXOX X XX XXXX XXOX X XX XXXX XXOX X XX XX",
" X XX XXXXXX XX.X XX XXXXXX XX X XX XXXXXX XX X XX XXXXXX XX X X",
"X XXXXXXXXXXXXXX XXXXXXXXXXXXXX XXXXXXXXXXXXXX XXXXXXXXXXXXXX XX",
"XXXOXXXX XXOXXXXXXOXXXX XXOXXXXXXOXXXX XXOXXXXXXOXXXX XXOXXXXXXO",
"XOXXXXX X XXXX XOXXXXX X XXXX XOXXXXX X XXXX XOXXXXX X XXXX XOXX",
"XXXXXXXX XXXX XXXXXXXXX XXXX XXXXXXXXX XXXX XXXXXXXXX XXXX XXXXX",
"XX XXOXXXXXXXXXXX XXOXXXXXXXXXXX XXOXXXXXXXXXXX XXOXXXXXXXXXXX X",
"X XXXXXXXXX XXXX XXXXXXXXX XXXX XXXXXXXXX XXXX XXXXXXXXX XXXX XX",
"XXXXXXXXXX XXOXXXXXXXXXXX XXOXXXXXXXXXXX XXOXXXXXXXXXXX XXOXXXXX",
"XXXXXX XXXXXXXXXXXXXX XXXXXXXXXXXXXX XXXXXXXXXXXXXX XXXXXXXXXXXX",
"OXXXX XXXXXX XXoXXXX XXXXXX XXOXXXX XXXXXX XXOXXXX XXXXXX XXOXXX",
"XXX XXXOXXX X XXXX XXXOXXX X XXXX XXXOXXX X XXXX XXXOXXX X XXXX ",
"XX X XXXX XX XXXX X XXXX XX XXXX X XXXX XX XXXX X XXXX XX XXXX X",
"XOX XXXX XXXXXXXOX XXXX XXXXXXXOX XXXX XXXXXXXOX XXXX XXXXXXXOX ",
"XXXXXXXXXXOXXXOXXXXXXXXXXOXXXOXXXXXXXXXXOXXXOXXXXXXXXXXOXXXOXXXX"
};
