/* XPM */
static char *f0537b3978364780a54909ad155959063UMFX27YTFVhOz77[] = {
/* columns rows colors chars-per-pixel */
"64 64 17 1 ",
"  c #A07F61",
". c #8C6F56",
"X c #BC9573",
"o c #907258",
"O c #414044",
"+ c #242326",
"@ c #B79170",
"# c #8B6E4E",
"$ c black",
"% c #774133",
"& c #727177",
"* c #918F98",
"= c #B69B83",
"- c #675546",
"; c white",
": c #674647",
"> c #835658",
/* pixels */
"            .              .              .              .      ",
" .    .  X . .  .    .  X . .  .    .  X . .  .    .  X . .  .  ",
". .  .      .  o .  .      .  . .  .      .  . .  .      .  . . ",
" .              .              .              .              .  ",
"   X    .  X      X    .  X      X    .  X      X    .  X      X",
" X     . .    . X     . .    . X     . .    . X     . .    . X  ",
"        .    .         .    .         .    .         .    .     ",
"  .  X           .  X       OOOOOOOO           .  X           . ",
" .         .    .         . OOOOOOOO     .    .         .    .  ",
"          .  X           .OOOOOOOOOOO   .  X           .  X     ",
"      .              .   OOO+++++++++              .            ",
"X    .      .  @    .    OOO+++++++++     .  X    .      .  X   ",
"   .   X   . .    .   X  O++######+++X   . .    .   X   . .    .",
"  . .    .  .    . .    .O++$%%##$+++  .  .    . .    .  .    . ",
" X .    .       X .    . O++$%%##$+++ .       X .    .       X .",
"          X   X          O++#%%###+++   X   X          X   X    ",
"            .            OOO######+++     .              .      ",
" .    .  X . .  .    .  XOOO######+++  X . .  .    .  X . .  .  ",
". .  .      .  o .  .     OOOOOOO++++     .  . .  .      .  . . ",
" .              .         OOOOOOO++++         .              .  ",
"   X    .  X      X    . OOOOOO+++++  .  X      X    .  X      @",
" X     . .    . X     .OOOOOO++OOO+++. .    . X     . .    . X  ",
"        .    .         OOOOOO++OOO+++ .    .         .    .     ",
"  .  X           .  X OOOOOO+&&&&&OO+++        .  X           . ",
" .         .    .     OOOO++&*******O+++ .    .         .    .  ",
"          .  X        OOOO++&*******O+++.  X           .  X     ",
"      .             OOOOOO++********O+++           .            ",
"X    .      .  @    OOOOO+++******++O+++  .  X    .      .  X   ",
"   .   X   . .    . OOOOO+++******++O+++ . .    .   X   . .    o",
"  . .    .  .    . .OOOOO+++*****+&&O+++++.    . .    .  .    . ",
" X .    .       X . OOOOO+++*****+&&O+++++    X .    .       X o",
"          X   X     OOO+++OO&**++&&&OOO+++  X          X   X    ",
"            .       OOO+++OO&++**&&&OOO+++.              .      ",
" .    .  X . .  .   OOO+++OO&++**&&&OOO+++ .  .    .  X . .  .  ",
". .  .      .  o .  OOO+++OO+&&&&=&&=OO+++.  . .  .      .  . . ",
" .              .   OOO+++OO+++++++++OO+++    .              .  ",
"   X    .  X      X OOO+++OO+++++++++OO+++      X    .  X      X",
" X     . .    . X   OOO+++OO&&&&&-&&-OO+++  . X     . .    . X  ",
"        .    .      OOO+++**&&&&&&&&&OO+++ .         .    .     ",
"  .  X           .  OOO+++**&&&&&&&&&OO+++     .  X           . ",
" .         .    .   OOO+++**;&&&&&&&:OO+++    .         .    .  ",
"          .  X      OOO+++**;&&&&&&&:OO+++ X           .  X     ",
"      .             OOO+++>>;;;;;>:::OO+           .            ",
"X    .      .  @    . O+++>>:++;;;>>:OO+  .  X    .      .  X   ",
"   .   X   . .    .   O+++>>:++;;;>>:OO+ . .    .   X   . .    .",
"  . .    .  .    . .  O+++>>:++++>>>:OO+  .    . .    .  .    . ",
" X .    .       X .   O+++:::++++>>>:OO+      X .    .       X .",
"          X   X       O+++:::++++>>>:OO+X   X          X   X    ",
"            .         O+++::++++++>>:OO+  .              .      ",
" .    .  X . .  .    .O++:::++++++>>:OO+ . .  .    .  X . .  .  ",
". .  .      .  o .  . O++:::++++++>>:OO+  .  . .  .      .  . . ",
" .              .      ++:::   .  >>:OO       .              .  ",
"   X    .  X      X    ++:::     X>>:OO  X      X    .  X      X",
" X     . .    . X     . .O++ . X  OO+. .    . X     . .    . X  ",
"        .    .         OO+++.     OO+++    .         .    .     ",
"  .  X           .  X  OO+++    . OO+++        .  X           . ",
" .         .    .         .    .         .    .         .    .  ",
"          .  X           .  X           .  X           .  X     ",
"      .              .              .              .            ",
"X    .      .  @    .      .  X    .      .  X    .      .  X   ",
"   .   X   . .    .   X   . .    .   X   . .    .   X   . .    .",
"  . .    .  .    . .    .  .    . .    .  .    . .    .  .    . ",
" X .    .       X .    .       X .    .       X .    .       X .",
"          X   X          X   X          X   X          X   X    "
};
