/* XPM */
static char *_642b877591c4ce08e6d6ac80d550661xsQu32FEKjrRFFCO[] = {
/* columns rows colors chars-per-pixel */
"64 64 8 1 ",
"  c #161616",
". c gray40",
"X c #8C6F56",
"o c #907258",
"O c #A07F61",
"+ c #B79170",
"@ c #BC9573",
"# c #8E8E8E",
/* pixels */
"OOOOOOOOOOOOXOOOOOOOOOOOOOOXOOOOOOOOOOOOOOXOOOOOOOOOOOOOOXOOOOOO",
"                   OOXOO@OXOXOOXOOOOXOO@OXOXOOXOOOOXOO@OXOXOOXOO",
" ################# OXOOOOOOXOOXOXOOXOOOOOOXOOXOXOOXOOOOOOXOOXOXO",
" ################# OOOOOOOOOOOOXOOOOOOOOOOOOOOXOOOOOOOOOOOOOOXOO",
" ################# OOOOXOO@OOOOOO@OOOOXOO@OOOOOO@OOOOXOO@OOOOOO@",
" ################# OOOXOXOOOOXO@OOOOOXOXOOOOXO@OOOOOXOXOOOOXO@OO",
" ################# OOOOXOOOOXOOOOOOOOOXOOOOXOOOOOOOOOXOOOOXOOOOO",
" ################# O@OOOOOOOOOOOXOO@OOOOOOOOOOOXOO@OOOOOOOOOOOXO",
" ################# OOOOOOOXOOOOXOOOOOOOOOXOOOOXOOOOOOOOOXOOOOXOO",
" ################# OOOOOOXOO@OOOOOOOOOOOXOO@OOOOOOOOOOOXOO@OOOOO",
" #################              OOOOXOOOOOOOOOOOOOOXOOOOOOOOOOOO",
" ################# ############ OOOXOOOOOOXOO@OOOOXOOOOOOXOO@OOO",
" ################# ############ OXOOO@OOOXOXOOOOXOOO@OOOXOXOOOOX",
" ################# ############ XOXOOOOXOOXOOOOXOXOOOOXOOXOOOOXO",
" ################# ############ OXOOOOXOOOOOOO@OXOOOOXOOOOOOO@OX",
" ################# ############ OOOOOOOO@OOO@OOOOOOOOOO@OOO@OOOO",
" ################# ############ OOOOOOOOOOXOOOOOOOOOOOOOOXOOOOOO",
" ################# ############ OOOOXOO@OXOXOOXOOOOXOO@OXOXOOXOO",
" ################# ############             OXOXOOXOOOOOOXOOXOXO",
" ################# ############ ########### OOXOOOOOOOOOOOOOOXOO",
" ################# ############ ########### OOOO@OOOOXOO@OOOOOO+",
" ################# ############ ########### XO@OOOOOXOXOOOOXO@OO",
" ################# ############ ########### OOOOOOOOOXOOOOXOOOOO",
" ################# ############ ###########             OOOOOOXO",
" ################# ############ ########### ########### XOOOOXOO",
"                   ############ ########### ########### OO@OOOOO",
" ................. ############ ########### ########### OOOOOOOO",
" ................. ############ ########### ########### OXOO@OOO",
" ................. ############ ########### ########### XOXOOOOo",
" ................. ############ ########### ########### OXOOOOXO",
" ................. ############ ########### ########### OOOOO@Oo",
" ................. ############ ########### ###########         ",
" ................. ############ ########### ########### ####### ",
" ................. ############ ########### ########### ####### ",
" ................. ############ ########### ########### ####### ",
" .................              ########### ########### ####### ",
" .............................. ########### ########### ####### ",
" .............................. ########### ########### ####### ",
" .............................. ########### ########### ####### ",
" .............................. ########### ########### ####### ",
" .............................. ########### ########### ####### ",
" .............................. ########### ########### ####### ",
" ..............................             ########### ####### ",
" .......................................... ########### ####### ",
" .......................................... ########### ####### ",
" .......................................... ########### ####### ",
" .......................................... ########### ####### ",
" ..........................................             ####### ",
" ...................................................... ####### ",
" ...................................................... ####### ",
" ...................................................... ####### ",
" ...................................................... ####### ",
" ...................................................... ####### ",
" ...................................................... ####### ",
" ...................................................... ####### ",
" ...................................................... ####### ",
" ......................................................         ",
" .............................................................. ",
" .............................................................. ",
" .............................................................. ",
" .............................................................. ",
" .............................................................. ",
" .............................................................. ",
"                                                                "
};
