/* XPM */
static char *e3b5c61548da497ca8f70e9919b3b4f4fYd83me7OvudTBM5[] = {
/* columns rows colors chars-per-pixel */
"64 64 46 1 ",
"  c #3B3B3F",
". c gray24",
"X c #3E3D3D",
"o c #3F3D3D",
"O c #403E3E",
"+ c #413E3E",
"@ c #453F3F",
"# c #393A40",
"$ c #4D4140",
"% c #564342",
"& c #6D4E46",
"* c #83504A",
"= c #83514A",
"- c #84504A",
"; c #84514A",
": c #87524B",
"> c #8D544A",
", c #8E544A",
"< c #8E554A",
"1 c #8F554A",
"2 c #8F564A",
"3 c #90554A",
"4 c #90564A",
"5 c #90564B",
"6 c #93564B",
"7 c #94574B",
"8 c #91564C",
"9 c #96594B",
"0 c #9F5C4D",
"q c #A86260",
"w c #B86A65",
"e c #C68A72",
"r c #D39177",
"t c #D49177",
"y c #D49277",
"u c #D59277",
"i c #D59278",
"p c #D59378",
"a c #D69378",
"s c #D69478",
"d c #D79478",
"f c #D79479",
"g c #D79579",
"h c #D89579",
"j c #D89679",
"k c #D9977A",
/* pixels */
"....00...000....00..  88   888    88....00...000....00....00....",
"................................................................",
"..ww..kww...wwww...www..kww...wwww...www..kww...wwww...www..kw..",
"0.wkkkkkkkwwwkwwwww.wkkkkkkkwwwkwwwwwwwkkkkkkkwwwkwwwwwwwkkkk..k",
"..wkkkkkkkkwkkkkwwwwwkkkkkkkkwkkkkwwwwwkkkkkkkkwkkkkwwwwwkkkkk..",
"0..kwkkwkkkkkkkkkkkkwkwkkwkkkkkkkkkwwwkkkkkwkkkkkkkkkkkkwkwkkw..",
"0..kkkkwwkkwwwwkkk0wkkkkkkkkkwwwwkkkkkkkkkkkwkkwwwwkkwwwkkkkkw..",
"0..kkkkkkkkkkkkkkk0kkkkkkkkkkkkkkkkwwwwkkkkkkkkkkkkwkkkkkkkkk..k",
"..wwwwwkkkkkkkkwkkwkkkwwwkkkkkkkkkkwkkkkkkkkkkkkkkkwkkkkkwwww..k",
"..wkkkkkkwwkkkkkkkwwwkkkkkkwwkkkkkkkkkkkkkkkkkkkkkkkkkkkkkkkkk..",
"0..kkkkkkkwwwwkkkkkwkkkkkkkkwwwwkkkwkkkwkkkkkkkwkkkkkkkkkkkkk..k",
"&..kkwkwwkkwkkkkkwwkkkkwwwwkkwkkkkkkkkkwkkkkkkkkkkkkkkwkkkkwww..",
"...wwwkwkkkkkkkkkkkkkkkwwwkkkkkkkkkkkkkkkwwwkkkkkkkkkkkkkkkwww..",
"..wwwkkkkkkkwwkkkkwkkkkkkkkkkkwwkkkkkwwwwkkkkkkkwwkkkkkkwwwkkk.O",
"...wwkkkkkkkkkkkkkkkkkkkwwwwwwwkkkkkkkkkkkkkkkkwwwwkkkkkkkkwkw.#",
"..wwwkwwkkkkkkkkkkkkkkkkkwkkkkkkwkkkwwwkkwkkkkwkwwwkkwkkkwkwkw..",
"..wwkkkwkkkkkkkkkkkkkkwkkkkwwwwkkwwwkkkkkkkkwwwkwwkwkkwkkwwkww..",
"0..kkkkkkkkwwkkwwkwwwkkkkkkkwwkkkwwkkwwwkkkkwwwkwwkwkkkkkwkkk..k",
"..wkkkkkkkkkkkkkwkwwwkkkkkkkkwkkkkkwwwwkkkkkkkwwkkwkkwkkkkkkkk..",
"0..kwkkwkkkkkkkkkwkkkkwkkwkkkkkkkkkkkkkkkkkkkkkkkkkkkwkkkkkkkw..",
"0..kkkkwwkkwwkwkkkwkkkkkkwwkkwwwkkkkwwkkwkkkkkkkkkkkkwkkkkwkkw..",
"0..kkkkkkkkkkkkwkkkkwkkkkkkkkkkkkwkkwwkkkkkkwkkkwwkkkkkkkkkkk..k",
"..wwwwwkkkkkkkkwwkkwwwkkkkkkkkkkkwwkwkkkkkkkkkkkkkkkkkkkwkkkw..k",
"..wkkkkkkwwkkkkkkkkkwkkkkkkkkkkkkkkkkwwwkwkkkkkkkkkkwkkwwwwwkk..",
"0..kkkkkkkwwkkkkkk0kkkkkkkkkwkkkwkkwwkkkkkkkkwkkkkkkkkkwwkkkk..k",
"&..kkwwwkkkkkkkkkkkkkkkwwwwkkwkkkkkwwwkkkkkkkkkkkwwkkkkwkkkkww..",
"..wwwwkkkkkkkkkkkwwkkkkkwwkkkkkkkkkkkkkkkkwkkkkkkkkkkkwwkkkwww..",
" .qqkkeeeekkkqeekwkwkkkkkkkkkkkkkkkkkkkkkkkkkkkkkkkkkkkkwwwwkk.O",
"...kwwwwkkkkkkkwkkkwwkwwwwkkkkkkkkkkkkkwkkwwwkwkwwwkkkkkwwwwww..",
"..wkwwkkwwwkkkkkkkwwwkkkkkwwwwwwkkkkkkkkwkwwkkkwwkkwkkwwwwwwww..",
"..wwkkkkkkkwwkkkwwkwwkkkkkkkkkkkkkkkwwwwkkkkkwwwkkkkwkwwwwkkk..k",
"0..kkkkkkkkkkkkkkkkkkkkkkkkkkkkkwwwwkkkkkkkkkkkkwkwwkkwwwkkkkk..",
"..wkkkkkkkkkkkkkkkkkwkkkkkkkkkkkkkkkkkkkkkkkkkkkkkkkwkwwwkkkkw.O",
"0..kwkkwkkkkkkkkkkwwkkkkkwkkkkkkkkkwwwkkkkkwkkkkkkkkkkwwkkwkkw..",
"0..kkkkwwkkkwwkkkkwkwkkkkwwkkwwwwkkkwwkkkkkwkkkwwwwkkkwwkkkkk..k",
"0..kkkkkkkkkkkwwkkkkkkkkkkkkkkkkwwkkkkwkkkkkkkkkkkwwkkwwwkkkw..k",
"..wwwwwkkkkkkkkwkkkkwkwwwkkkkkkkkwwkwwwwwkwkkkkkkkkwwkwwwwwwkk..",
"..wkkkkkkwwkkkkkkkwkwkkkkkkwwkkkkkkkwwwkkkkkkwwkkkkkkkwwwkkkk..k",
"0..kkkkkkkwwwwwkkwkwkkkkkkkkwwkkkkkkwwkkkkkkkkwwwwwkkwkwkkkkww.O",
"&..kkwwwwkkwkkkkkkkkkkkwwwwkkkkkkkkkkwkkkwwkwkkwkkkkkwkwkkkwww..",
"..wwwwwwkkkkkkkkkwwkkwkkkkkkkkkkkkkkwkwwkwkwkkkkkkkkkkwkwwwwkk.O",
"..wwwkkkkkkkkkkkwwwkkkwkkwwkkwwwwkkwwkwkwkkkkkkkwwkkkkkkwwwkww..",
"..wwkkkkwwkkkkwwkkkkwwwwwkkwkwkkkkkkkkwkkwwkwwwkkkwkwwwkwwwwkw..",
"..wkwkwwwkkwkkwwwwkkwwwkkwwwkkwwkwwkkkkkwwwkkkkkkkkkkkkkwwwwk..k",
"..kwkkkwkkwwkkwwwkkkkkkkkkkkkkkkkkkkkkkwkkkkkkwwwkkkkwkkwwkkkk..",
"0.k.kkkkkkkkwkkkkkwwwkkkkkkkwwwkkkwwwkkkkkkkkkkkkkkkwkkkwkkkkw..",
"..wkkkkkkkkkkkkkkkkkkkkkkkkkkwkkkkkkkkwkkkkkkkkwkkkkkkwkwkkkkw..",
"0..kwkkwkkkkkkkkkkwwkkwkkwkkkkkkkkkkkkkkkkkwkkkkkkkkkwwkkkwkk..k",
"0..kkkkwwkkwwwwkkkkkkkkkkwwkkwwwwkkkkkkkkkkwwkkwwwwkkkkkkkkkw..k",
"0..kkkkkkkkkkkwwkkkwkkkkkkkkkkkkkwkkwwkkkkkkkkkkkkwwkkkkwkkkkk..",
"..wwwwwkkkkkkkkwwkkkwwwwwkkkkkkkkkkkkkkkkwwkkkkkkkkwkkwkkwwwk..k",
"..wkkkkkkwwkkkkkkkwwwkkkkkkwwkkkkkkkwwkkkkkkkwwkkkkkkkkkkkkkww..",
"0..kkkkkkkwwwwwkkkwwkkkkkkkkwwwwwkkwwwkkkkkkkkwwwwwkkkkkkkkkww..",
"&..kkwwwwkkwkkkkkkkkkkkwwwwkkwkkkkkwwkkkkwwwwkkwkkkkkwwwkkkkkk.O",
"..wwwwwwkkkkkkkkkkwwwwwwwwkkkkkkkkkkwkwkwwwwkkkkkkkkkkwkkwwwww..",
"..wwwkkkkkkkwwkkkwwwwwwkkkkkkkwwkkkkkwkwwkkkkkkkwwkkkwkkwwwkkw..",
"...ww0kww0kkkkkkkkkkkwwwwkkkkkkkkkkkkkwwwwwwwkkkkkkkkkkkkkkwwww.",
"..wwwwkkkkkkkkkkkkkkkkkkkkkkkkkkkkkkkkkkwwwwkkkkkkkkkkkkkkkwww..",
"..wwkkkwwwwwwwwwkkkkkkwkkkwwwwwwkkkkkkkkkkkkkkkkkkkkkwwwwwkkkw..",
"0..kkkkkkkwwwkwwwwwwwkkkkkkkkwwkwwwwwwwwwkkkkkwwkkkkwwwwwkkkkw..",
"..wkkkkkkkkwkkkkwwwwwkkkkkkkkwkkkkww.wwkkkkkkkkwkkkkwww.wkkkkkXk",
"9..t..twr...ftft...%f...swf...ssss...$fk..sws...sssk....dk..wk@d",
"................................................................",
"....>>....<<....33<....<....*;....;:*...;;....33....<93....3...."
};
